<?xml version="1.0" standalone="no"?>
<!DOCTYPE svg PUBLIC "-//W3C//DTD SVG 20010904//EN"
 "http://www.w3.org/TR/2001/REC-SVG-20010904/DTD/svg10.dtd">
<svg version="1.0" xmlns="http://www.w3.org/2000/svg"
 width="204.000000pt" height="204.000000pt" viewBox="0 0 204.000000 204.000000"
 preserveAspectRatio="xMidYMid meet">
<metadata>
Created by potrace 1.14, written by Peter Selinger 2001-2017
</metadata>
<g transform="translate(0.000000,204.000000) scale(0.100000,-0.100000)"
fill="#000000" stroke="none">
<path d="M948 2004 c-4 -3 -12 -7 -20 -8 -23 -5 -86 -35 -100 -48 -95 -89
-263 -176 -389 -202 -57 -12 -69 -15 -87 -25 -11 -6 -22 -7 -26 -4 -3 3 -6 0
-6 -7 0 -7 -3 -11 -6 -7 -3 3 -11 2 -18 -3 -6 -6 -26 -21 -44 -36 -36 -29 -77
-94 -93 -146 -6 -18 -12 -78 -14 -133 -6 -163 -26 -249 -94 -399 -51 -112 -56
-207 -14 -295 15 -34 53 -73 185 -196 78 -72 121 -131 183 -250 80 -152 154
-207 287 -211 42 -2 91 1 110 6 18 5 47 12 63 15 52 11 231 13 281 4 27 -5 62
-12 78 -15 16 -3 33 -7 38 -10 10 -7 105 -6 137 0 49 11 117 50 155 90 21 23
56 77 78 121 66 131 134 213 281 338 39 34 66 67 88 112 29 60 31 70 27 142
-4 63 -12 93 -42 156 -66 140 -84 218 -91 387 -5 101 -28 210 -46 210 -5 0 -9
5 -9 10 0 27 -113 119 -155 126 -70 12 -199 54 -273 90 -85 41 -112 58 -147
92 -8 6 -16 12 -19 12 -3 0 -17 11 -32 25 -40 37 -125 65 -198 65 -34 0 -65
-3 -68 -6z"/>
</g>
</svg>
